<?xml version="1.0" encoding="iso-8859-1"?>
<!-- Generator: Adobe Illustrator 19.0.0, SVG Export Plug-In . SVG Version: 6.00 Build 0)  -->
<svg version="1.1" id="Capa_1" xmlns="http://www.w3.org/2000/svg" xmlns:xlink="http://www.w3.org/1999/xlink" x="0px" y="0px"
	 viewBox="0 0 512 512" style="enable-background:new 0 0 512 512;" xml:space="preserve">
<g>
	<g>
		<path d="M256,0C114.598,0,0,114.618,0,256s114.598,256,256,256s256-114.618,256-256S397.402,0,256,0z M266.379,490.981V449.73
			c0-5.736-4.65-10.379-10.379-10.379s-10.379,4.642-10.379,10.379v41.251C124.145,485.673,26.326,387.847,21.02,266.379H62.27
			c5.729,0,10.379-4.65,10.379-10.379c0-5.736-4.65-10.379-10.379-10.379H21.02C26.327,124.153,124.147,26.326,245.621,21.02V62.27
			c0,5.729,4.65,10.379,10.379,10.379c5.729,0,10.379-4.65,10.379-10.379V21.02c121.476,5.307,219.296,103.133,224.602,224.602
			H449.73c-5.729,0-10.379,4.642-10.379,10.379c0,5.729,4.65,10.379,10.379,10.379h41.251
			C485.673,387.847,387.853,485.673,266.379,490.981z"/>
	</g>
</g>
<g>
	<g>
		<path d="M390.78,111.789c-2.422,0-5.273,0.574-8.461,1.778L213.94,177.18c-14.239,5.376-30.284,21.435-35.66,35.667
			l-63.606,168.379c-4.179,11.05-0.747,17.885,7.646,17.885c2.422,0,5.273-0.574,8.461-1.778L299.16,333.72
			c14.239-5.376,30.284-21.435,35.66-35.667l63.606-168.379C402.605,118.625,399.181,111.789,390.78,111.789z M291.827,314.306
			l-151.275,57.151l57.151-151.275c0.693-1.82,1.813-3.778,3.134-5.764l19.836,19.843c-3.895,6.324-6.185,13.755-6.185,21.739
			c0,22.929,18.584,41.513,41.521,41.513c7.978,0,15.409-2.29,21.732-6.193l19.851,19.851
			C295.611,312.493,293.647,313.621,291.827,314.306z M235.244,256c0-11.444,9.313-20.757,20.763-20.757
			c11.437,0,20.75,9.313,20.75,20.757c0,11.444-9.313,20.757-20.75,20.757C244.557,276.757,235.244,267.444,235.244,256z
			 M315.406,290.719c-0.693,1.82-1.813,3.784-3.142,5.77l-20.113-20.121c3.398-6.02,5.362-12.96,5.362-20.369
			c0-22.929-18.584-41.513-41.507-41.513c-7.41,0-14.357,1.966-20.383,5.362l-20.107-20.113c1.985-1.329,3.944-2.449,5.77-3.142
			l151.268-57.151L315.406,290.719z"/>
	</g>
</g>
<g>
</g>
<g>
</g>
<g>
</g>
<g>
</g>
<g>
</g>
<g>
</g>
<g>
</g>
<g>
</g>
<g>
</g>
<g>
</g>
<g>
</g>
<g>
</g>
<g>
</g>
<g>
</g>
<g>
</g>
</svg>
